<svg width="22" height="22" viewBox="0 0 22 22" fill="none" xmlns="http://www.w3.org/2000/svg">
<path d="M11.7759 2.06984L11.7759 2.06984L11.7743 2.06747C11.5245 1.6902 11.1104 1.51194 10.7143 1.51194C10.3171 1.51194 9.90139 1.69124 9.65186 2.08013L5.85528 7.89664H1.78568C1.0746 7.89664 0.510169 8.48836 0.510169 9.19401C0.510169 9.30104 0.521441 9.42168 0.56121 9.54857L2.82672 18.0192C2.82672 18.0192 2.82673 18.0192 2.82673 18.0192C3.07432 18.9455 3.90636 19.6385 4.91068 19.6385H16.5178C17.5228 19.6385 18.3525 18.9453 18.6096 18.0232L18.6107 18.0192L20.8786 9.53985L20.8861 9.51146L20.8893 9.48224L20.9161 9.23527L20.9183 9.2147V9.19401C20.9183 8.48836 20.3539 7.89664 19.6428 7.89664H15.5734L11.7759 2.06984ZM12.6785 7.89664H8.74999L10.7143 4.94521L12.6785 7.89664ZM10.7143 15.2143C9.95211 15.2143 9.31119 14.5712 9.31119 13.7676C9.31119 12.9639 9.95211 12.3208 10.7143 12.3208C11.4764 12.3208 12.1173 12.9639 12.1173 13.7676C12.1173 14.5712 11.4764 15.2143 10.7143 15.2143Z" stroke="#131313" stroke-width="0.765306"/>
</svg>
