<svg width="123" height="26" viewBox="0 0 123 26" fill="none" xmlns="http://www.w3.org/2000/svg">
<g clip-path="url(#clip0_4_287)">
<path d="M21.1006 5.13512C18.4878 5.13512 14.7965 5.35373 12.9101 7.23908C12.0934 8.05578 11.6856 9.38716 11.7915 10.8941C11.8052 11.0931 11.9376 11.2627 12.1278 11.3255C12.317 11.3873 12.5248 11.3294 12.6542 11.1775C13.7033 9.9431 15.0072 8.95388 16.5328 8.23718C16.6622 8.17541 16.8152 8.17049 16.9544 8.21953C17.0769 8.26365 17.173 8.34697 17.223 8.45386C17.3269 8.67349 17.2936 8.9627 16.9485 9.12544C16.9289 9.13522 16.9112 9.148 16.8916 9.15682C16.8848 9.15976 16.8769 9.1588 16.871 9.16174C13.1121 10.9285 11.264 14.0109 10.4248 17.1806C9.81299 13.2119 8.52082 10.8755 7.3002 9.44116C6.41685 8.29605 5.54817 7.68914 5.04623 7.34602C4.95307 7.28228 4.67172 7.09013 4.55504 6.97345C4.36386 6.78226 4.36386 6.47146 4.55504 6.28027C4.74622 6.09006 5.05799 6.09006 5.27073 6.30183C5.32271 6.34792 5.40603 6.40675 5.51191 6.47734L5.59918 6.53616C6.30899 7.02244 7.63063 7.9254 8.80318 9.86957C8.9081 10.0431 9.11104 10.1363 9.30811 10.099C9.50811 10.0637 9.66496 9.90979 9.70421 9.71074C9.9601 8.40386 9.84539 6.46456 8.67969 5.29886C6.79338 3.41448 3.10211 3.19586 0.49027 3.19586C0.219629 3.19582 0 3.41544 0 3.68604C0 6.29884 0.218618 9.99012 2.10396 11.8765C2.89024 12.6628 4.10305 13.0157 5.30795 13.0157C6.2913 13.0157 7.25506 12.7696 7.99332 12.3431C9.00019 14.4294 9.80417 17.5462 9.80417 22.314C9.80417 22.5846 10.0238 22.8042 10.2944 22.8042C10.565 22.8042 10.7846 22.5846 10.7846 22.314C10.7846 19.6541 11.2405 16.4618 12.9356 13.8343C13.6151 14.4981 14.7847 14.9187 16.0808 14.9579C16.1455 14.9599 16.2093 14.9608 16.273 14.9608C17.5897 14.9608 18.7534 14.5481 19.4858 13.8147C21.3721 11.9284 21.5897 8.23713 21.5897 5.62428C21.5908 5.35373 21.3721 5.13512 21.1006 5.13512Z" fill="#00B307"/>
</g>
<path d="M31.0677 6.98136V11.3857H36.2493V13.3935H31.0677V17.9922H36.897V20H28.6065V4.97351H36.897V6.98136H31.0677ZM38.4604 14.0412C38.4604 12.8178 38.705 11.7455 39.1944 10.8243C39.6982 9.88879 40.389 9.16913 41.267 8.66537C42.145 8.16161 43.1525 7.90972 44.2896 7.90972C45.7289 7.90972 46.9164 8.25516 47.8519 8.94603C48.8019 9.62251 49.4424 10.5941 49.7734 11.8607H47.1179C46.902 11.2705 46.5565 10.81 46.0815 10.4789C45.6066 10.1479 45.0093 9.98234 44.2896 9.98234C43.2821 9.98234 42.4761 10.3422 41.8715 11.0618C41.2814 11.7671 40.9864 12.7602 40.9864 14.0412C40.9864 15.3222 41.2814 16.3225 41.8715 17.0422C42.4761 17.7619 43.2821 18.1217 44.2896 18.1217C45.7145 18.1217 46.6573 17.4956 47.1179 16.2434H49.7734C49.428 17.4524 48.7803 18.4167 47.8303 19.1364C46.8804 19.8417 45.7001 20.1943 44.2896 20.1943C43.1525 20.1943 42.145 19.9424 41.267 19.4387C40.389 18.9205 39.6982 18.2009 39.1944 17.2797C38.705 16.3441 38.4604 15.2646 38.4604 14.0412ZM56.7385 20.1943C55.6158 20.1943 54.6011 19.9424 53.6943 19.4387C52.7875 18.9205 52.0751 18.2009 51.5569 17.2797C51.0388 16.3441 50.7797 15.2646 50.7797 14.0412C50.7797 12.8322 51.046 11.7599 51.5785 10.8243C52.1111 9.88879 52.8379 9.16913 53.7591 8.66537C54.6802 8.16161 55.7093 7.90972 56.8464 7.90972C57.9835 7.90972 59.0126 8.16161 59.9337 8.66537C60.8549 9.16913 61.5818 9.88879 62.1143 10.8243C62.6469 11.7599 62.9131 12.8322 62.9131 14.0412C62.9131 15.2502 62.6397 16.3225 62.0927 17.2581C61.5458 18.1937 60.7973 18.9205 59.8474 19.4387C58.9118 19.9424 57.8755 20.1943 56.7385 20.1943ZM56.7385 18.0569C57.3718 18.0569 57.9619 17.9058 58.5088 17.6035C59.0702 17.3013 59.5235 16.8479 59.869 16.2434C60.2144 15.6389 60.3871 14.9048 60.3871 14.0412C60.3871 13.1776 60.2216 12.4508 59.8906 11.8607C59.5595 11.2561 59.1205 10.8028 58.5736 10.5005C58.0267 10.1982 57.4365 10.0471 56.8032 10.0471C56.1699 10.0471 55.5798 10.1982 55.0329 10.5005C54.5003 10.8028 54.0757 11.2561 53.7591 11.8607C53.4424 12.4508 53.2841 13.1776 53.2841 14.0412C53.2841 15.3222 53.6079 16.3153 54.2556 17.0206C54.9177 17.7115 55.7453 18.0569 56.7385 18.0569ZM67.1597 9.87439C67.5771 9.29867 68.1457 8.83089 68.8653 8.47106C69.5994 8.09684 70.4126 7.90972 71.305 7.90972C72.3557 7.90972 73.3056 8.16161 74.1548 8.66537C75.004 9.16913 75.6733 9.88879 76.1627 10.8243C76.6521 11.7455 76.8967 12.8034 76.8967 13.998C76.8967 15.1927 76.6521 16.265 76.1627 17.2149C75.6733 18.1505 74.9968 18.8845 74.1332 19.4171C73.284 19.9352 72.3413 20.1943 71.305 20.1943C70.3838 20.1943 69.5634 20.0144 68.8437 19.6546C68.1385 19.2947 67.5771 18.8342 67.1597 18.2728V20H64.6985V4.02356H67.1597V9.87439ZM74.3923 13.998C74.3923 13.1776 74.2196 12.4724 73.8742 11.8822C73.5431 11.2777 73.0969 10.8243 72.5356 10.5221C71.9887 10.2054 71.3985 10.0471 70.7652 10.0471C70.1463 10.0471 69.5562 10.2054 68.9949 10.5221C68.4479 10.8387 68.0017 11.2993 67.6563 11.9038C67.3253 12.5083 67.1597 13.2208 67.1597 14.0412C67.1597 14.8616 67.3253 15.5813 67.6563 16.2002C68.0017 16.8047 68.4479 17.2653 68.9949 17.5819C69.5562 17.8986 70.1463 18.0569 70.7652 18.0569C71.3985 18.0569 71.9887 17.8986 72.5356 17.5819C73.0969 17.2509 73.5431 16.7759 73.8742 16.157C74.2196 15.5381 74.3923 14.8185 74.3923 13.998ZM77.8625 13.998C77.8625 12.8034 78.1072 11.7455 78.5966 10.8243C79.1004 9.90318 79.7768 9.19072 80.626 8.68696C81.4896 8.1688 82.4396 7.90972 83.4759 7.90972C84.4114 7.90972 85.2247 8.09684 85.9155 8.47106C86.6208 8.83089 87.1821 9.28427 87.5995 9.83121V8.10403H90.0824V20H87.5995V18.2296C87.1821 18.791 86.6136 19.2588 85.8939 19.633C85.1743 20.0072 84.3539 20.1943 83.4327 20.1943C82.4108 20.1943 81.4752 19.9352 80.626 19.4171C79.7768 18.8845 79.1004 18.1505 78.5966 17.2149C78.1072 16.265 77.8625 15.1927 77.8625 13.998ZM87.5995 14.0412C87.5995 13.2208 87.4268 12.5083 87.0814 11.9038C86.7503 11.2993 86.3113 10.8387 85.7644 10.5221C85.2175 10.2054 84.6273 10.0471 83.994 10.0471C83.3607 10.0471 82.7706 10.2054 82.2237 10.5221C81.6767 10.8243 81.2305 11.2777 80.8851 11.8822C80.5541 12.4724 80.3885 13.1776 80.3885 13.998C80.3885 14.8185 80.5541 15.5381 80.8851 16.157C81.2305 16.7759 81.6767 17.2509 82.2237 17.5819C82.785 17.8986 83.3751 18.0569 83.994 18.0569C84.6273 18.0569 85.2175 17.8986 85.7644 17.5819C86.3113 17.2653 86.7503 16.8047 87.0814 16.2002C87.4268 15.5813 87.5995 14.8616 87.5995 14.0412ZM94.848 17.9922H100.245V20H91.9981V17.9922L97.4171 10.1119H91.9981V8.10403H100.245V10.1119L94.848 17.9922ZM101.362 13.998C101.362 12.8034 101.606 11.7455 102.096 10.8243C102.599 9.90318 103.276 9.19072 104.125 8.68696C104.989 8.1688 105.939 7.90972 106.975 7.90972C107.911 7.90972 108.724 8.09684 109.415 8.47106C110.12 8.83089 110.681 9.28427 111.099 9.83121V8.10403H113.581V20H111.099V18.2296C110.681 18.791 110.113 19.2588 109.393 19.633C108.673 20.0072 107.853 20.1943 106.932 20.1943C105.91 20.1943 104.974 19.9352 104.125 19.4171C103.276 18.8845 102.599 18.1505 102.096 17.2149C101.606 16.265 101.362 15.1927 101.362 13.998ZM111.099 14.0412C111.099 13.2208 110.926 12.5083 110.581 11.9038C110.249 11.2993 109.81 10.8387 109.264 10.5221C108.717 10.2054 108.126 10.0471 107.493 10.0471C106.86 10.0471 106.27 10.2054 105.723 10.5221C105.176 10.8243 104.73 11.2777 104.384 11.8822C104.053 12.4724 103.888 13.1776 103.888 13.998C103.888 14.8185 104.053 15.5381 104.384 16.157C104.73 16.7759 105.176 17.2509 105.723 17.5819C106.284 17.8986 106.874 18.0569 107.493 18.0569C108.126 18.0569 108.717 17.8986 109.264 17.5819C109.81 17.2653 110.249 16.8047 110.581 16.2002C110.926 15.5813 111.099 14.8616 111.099 14.0412ZM118.628 9.83121C118.988 9.2267 119.463 8.75892 120.053 8.42788C120.657 8.08244 121.37 7.90972 122.19 7.90972V10.4573H121.564C120.6 10.4573 119.866 10.702 119.362 11.1914C118.872 11.6807 118.628 12.5299 118.628 13.739V20H116.167V8.10403H118.628V9.83121Z" fill="#002603"/>
<defs>
<clipPath id="clip0_4_287">
<rect width="21.5898" height="21.5898" fill="white" transform="translate(0 2.20511)"/>
</clipPath>
</defs>
</svg>
